HIERARCHY
ROOT Hips
{
	OFFSET 0.00000 0.00000 0.00000
	CHANNELS 6 Xposition Yposition Zposition Yrotation Zrotation Xrotation 
	JOINT Lumbar
	{
		OFFSET 0 0 0
		CHANNELS 3 Zrotation Xrotation Yrotation
		JOINT Neck
		{
			OFFSET 0.00 0.2701 0.00
			CHANNELS 3 Zrotation Xrotation Yrotation
			End Site
			{
				OFFSET 0.00 0.1379 0.00
			}
		}
		JOINT RightShoulder
		{
			OFFSET 0.0119 0.2289 0.1181
			CHANNELS 3 Zrotation Xrotation Yrotation
			JOINT RightElbow
			{
				OFFSET 0.00 -0.1475 0.00
				CHANNELS 2 Zrotation Yrotation
				JOINT RightWrist
				{
					OFFSET 0.00 -0.1605 0.00
					CHANNELS 2 Zrotation Xrotation
					End Site
					{
						OFFSET 0.0040 -0.1068 0.0006
					}
				}
			}
		}
		JOINT LeftShoulder
		{
			OFFSET 0.0119 0.2289 -0.1181
			CHANNELS 3 Zrotation Xrotation Yrotation
			JOINT LeftElbow
			{
				OFFSET 0.00 -0.1475 0.00
				CHANNELS 2 Zrotation Yrotation
				JOINT LeftWrist
				{
					OFFSET 0.00 -0.1605 0.00
					CHANNELS 2 Zrotation Xrotation
					End Site
					{
						OFFSET 0.0040 -0.1068 -0.0006
					}
				}
			}
		}
	}
	JOINT RightHip
	{
		OFFSET 0.0316 -0.0424 0.0458
		CHANNELS 3 Zrotation Xrotation Yrotation
		JOINT RightKnee
		{
			OFFSET 0.00 -0.2438 0.00
			CHANNELS 1 Zrotation
			JOINT RightAnkle
			{
				OFFSET 0.00 -0.2449 0.00
				CHANNELS 3 Zrotation Xrotation Yrotation
				End Site
				{
					OFFSET 0.1237 -0.0542 0.0051
				}
			}
		}
	}
	JOINT LeftHip
	{
		OFFSET 0.0316 -0.0424 -0.0458
		CHANNELS 3 Zrotation Xrotation Yrotation
		JOINT LeftKnee
		{
			OFFSET 0.00 -0.2438 0.00
			CHANNELS 1 Zrotation
			JOINT LeftAnkle
			{
				OFFSET 0.00 -0.2449 0.00
				CHANNELS 3 Zrotation Xrotation Yrotation
				End Site
				{
					OFFSET 0.1237 -0.0542 -0.0051
				}
			}
		}
	}
}
MOTION
Frames: 35
Frame Time: 0.02
0 0.57926 0 170.42474 0 -3.00808 6.75488 3.47003 -5.08638 -23.86021 5.77713 2.67491 17.64209 -20.74672 15.36237 10.71435 82.01465 -1.25572 -4.04101 18.93067 11.11125 -11.79974 7.73459 -73.34319 4.46671 9.58871 -5.5942 9.33881 -5.31234 -7.74925 -8.06675 -2.10217 -7.78976 -7.73947 8.52057 23.7699 -2.98841 -7.31648 2.04004 5.44686
-1e-05 0.57905 -0.00241 170.60925 0 -2.88437 6.14023 3.50889 -5.37496 -21.83973 5.44758 2.58066 15.90666 -20.4334 15.3269 10.78356 82.02141 -1.26254 -4.10039 16.76039 11.50682 -12.17827 7.93328 -73.52763 4.40025 9.84096 -5.65206 9.43044 -5.45887 -7.73462 -7.99214 -2.14058 -7.77813 -6.98239 8.81 23.04067 -4.50252 -6.8482 2.12779 6.14174
-3e-05 0.57885 -0.00482 170.79392 0 -2.76015 5.52715 3.54842 -5.66096 -19.82648 5.11887 2.48638 14.17739 -20.1218 15.28928 10.8518 82.02824 -1.26914 -4.15935 14.5978 11.8999 -12.55479 8.13 -73.71173 4.33413 10.09101 -5.71089 9.52083 -5.5985 -7.71864 -7.91772 -2.17851 -7.77334 -6.2207 9.09556 22.30746 -6.02288 -6.3783 2.21608 6.83583
-6e-05 0.57864 -0.00718 170.98177 0 -2.63413 4.91603 3.59057 -5.94195 -17.82458 4.79259 2.39058 12.45802 -19.81596 15.24848 10.91806 82.03724 -1.27506 -4.21779 12.44785 12.28508 -12.92226 8.32034 -73.89646 4.26887 10.33431 -5.77329 9.60902 -5.70602 -7.69707 -7.84467 -2.21437 -7.80134 -5.43786 9.37382 21.55556 -7.58213 -5.89474 2.30778 7.54341
-2e-05 0.57842 -0.00973 171.15362 0 -2.51938 4.29652 3.6183 -6.25243 -15.76518 4.45612 2.30223 10.68889 -19.48193 15.23142 10.99629 82.03694 -1.28473 -4.2797 10.23464 12.70995 -13.332 8.54396 -74.07807 4.19924 10.61291 -5.81574 9.7111 -5.9764 -7.70503 -7.76597 -2.26053 -7.66238 -4.77262 9.69719 20.90785 -8.93451 -5.48036 2.38193 8.19134
-0.00015 0.57823 -0.0119 171.3586 0 -2.37973 3.69403 3.67687 -6.49825 -13.82767 4.13971 2.19864 9.02497 -19.20629 15.15948 11.04815 82.05481 -1.28636 -4.33371 8.15493 13.05193 -13.65579 8.69734 -74.26594 4.13878 10.81689 -5.90104 9.78217 -5.90697 -7.6506 -7.69821 -2.28532 -7.8721 -3.85556 9.92044 20.03693 -10.72357 -4.92226 2.49274 8.95677
-0.00072 0.5781 -0.01303 171.66885 0 -2.17485 3.13457 3.82222 -6.58263 -12.19923 3.88767 2.04472 7.6299 -19.10362 14.96852 11.03432 82.13815 -1.26598 -4.3709 6.41943 13.15345 -13.70979 8.65057 -74.47828 4.10425 10.81026 -6.10564 9.77927 -4.82222 -7.41542 -7.66917 -2.24556 -9.12394 -2.22405 9.90039 18.53344 -13.80546 -3.91875 2.71482 10.1496
-0.00148 0.578 -0.01377 172.01041 0 -1.94404 2.59234 3.99852 -6.59876 -10.69668 3.65417 1.87677 6.34302 -19.05775 14.71641 10.99274 82.23741 -1.23747 -4.39932 4.82079 13.17346 -13.68286 8.534 -74.69584 4.07888 10.72919 -6.35364 9.74296 -3.40828 -7.11855 -7.64961 -2.18514 -10.71379 -0.34068 9.77332 16.80727 -17.31277 -2.77824 2.9722 11.44455
-0.00218 0.57789 -0.01468 172.329 0 -1.72238 2.0442 4.15985 -6.63497 -9.15292 3.40572 1.72035 5.01958 -18.978 14.47031 10.95897 82.31912 -1.21248 -4.42841 3.17383 13.23847 -13.71434 8.45325 -74.90659 4.04883 10.68505 -6.58124 9.71424 -2.19237 -6.85508 -7.62009 -2.1378 -12.10013 1.41804 9.6733 15.18981 -20.57653 -1.7303 3.20734 12.62596
-0.00277 0.57776 -0.01564 172.68421 0 -1.51148 1.48832 4.32515 -6.71701 -7.54358 3.18387 1.54211 3.64506 -18.93183 14.31437 10.94471 82.44304 -1.18807 -4.47114 1.47047 13.27015 -13.65525 8.35505 -75.13604 4.02076 10.62761 -6.81121 9.71731 -0.76835 -6.56896 -7.6143 -2.07512 -13.70034 3.22237 9.66356 13.53522 -24.06365 -0.55334 3.46907 14.08609
-0.00365 0.57768 -0.01641 172.97088 0 -1.27249 0.95227 4.48931 -6.68778 -6.09857 2.91222 1.40612 2.40022 -18.82984 13.95838 10.88416 82.48446 -1.1607 -4.48384 -0.08526 13.35152 -13.76464 8.27681 -75.32779 3.99101 10.58044 -7.04713 9.64653 0.2956 -6.31543 -7.56147 -2.03919 -14.9311 4.98798 9.44138 11.91216 -27.17177 0.38591 3.68321 14.99556
-0.00525 0.57772 -0.01673 173.05778 0 -0.95845 0.46965 4.64467 -6.36443 -5.09392 2.4887 1.38875 1.50676 -18.5548 13.04735 10.69475 82.28026 -1.12579 -4.41173 -1.24797 13.59284 -14.36572 8.26869 -75.41422 3.95219 10.57755 -7.28397 9.37788 0.32885 -6.16682 -7.375 -2.08469 -15.09823 6.61508 8.65051 10.37044 -29.25529 0.64804 3.76233 14.31074
-0.00716 0.57781 -0.01688 173.07475 0 -0.61802 0.00586 4.7974 -5.93194 -4.24704 2.01663 1.4145 0.73647 -18.22292 11.94177 10.46134 81.99502 -1.08847 -4.31054 -2.27044 13.8861 -15.13674 8.28321 -75.46258 3.91178 10.58779 -7.5262 9.03668 -0.0179 -6.05354 -7.14103 -2.15738 -14.87606 8.18816 7.65145 8.8802 -30.91767 0.6634 3.79127 13.07658
-0.00896 0.57787 -0.0171 173.12617 0 -0.29185 -0.46856 4.95016 -5.55207 -3.31639 1.5727 1.42172 -0.10342 -17.91989 10.93501 10.25301 81.75608 -1.05317 -4.22522 -3.36948 14.15422 -15.82709 8.28897 -75.52828 3.87348 10.59383 -7.76917 8.72979 -0.22203 -5.92369 -6.92981 -2.2159 -14.80457 9.76731 6.7527 7.40475 -32.69234 0.78396 3.84004 12.12692
-0.01061 0.57795 -0.01732 173.16915 0 0.04588 -0.93382 5.10914 -5.15794 -2.44089 1.10219 1.42468 -0.88257 -17.60464 9.87646 10.02156 81.47795 -1.01365 -4.12807 -4.40937 14.42751 -16.53394 8.28675 -75.59378 3.82955 10.59071 -8.00021 8.41513 -0.29565 -5.79231 -6.71433 -2.28118 -14.84966 11.43649 5.82471 5.75679 -34.82237 0.94048 3.9031 11.03692
-0.01267 0.578 -0.01752 173.2105 0 0.36409 -1.41366 5.25383 -4.76738 -1.4866 0.67727 1.44603 -1.75968 -17.30244 8.88756 9.82902 81.2617 -0.98248 -4.04914 -5.54113 14.70152 -17.24183 8.30633 -75.65084 3.79698 10.60961 -8.25677 8.10107 -0.72567 -5.67529 -6.49593 -2.33933 -14.5626 12.898 4.91136 4.48772 -36.09843 0.95938 3.92337 10.10342
-0.01571 0.57793 -0.01773 173.28256 0 0.63324 -1.94 5.36195 -4.42356 -0.27664 0.37336 1.51522 -2.94065 -17.03474 8.07768 9.74802 81.23862 -0.97497 -4.02467 -6.95665 14.98115 -17.96254 8.3901 -75.69168 3.7952 10.69615 -8.58257 7.79654 -2.13391 -5.57355 -6.28447 -2.36932 -13.38708 13.83171 4.07524 4.21551 -35.1881 0.67879 3.84343 9.77021
-0.01918 0.57781 -0.01793 173.3515 0 0.87934 -2.48102 5.4551 -4.0858 1.01654 0.12035 1.60004 -4.22207 -16.78507 7.35654 9.7092 81.28012 -0.97607 -4.02013 -8.46863 15.25679 -18.66898 8.4935 -75.7257 3.80512 10.80274 -8.93347 7.49729 -3.87283 -5.48897 -6.07102 -2.39164 -11.9014 14.55054 3.26458 4.33061 -33.41877 0.26454 3.72109 9.60657
-0.02251 0.5777 -0.01815 173.41025 0 1.12883 -3.01492 5.55358 -3.73864 2.27545 -0.14542 1.67281 -5.45887 -16.53657 6.6347 9.65543 81.2903 -0.97313 -4.00845 -9.94282 15.52435 -19.34889 8.58219 -75.76432 3.81022 10.8941 -9.27278 7.20207 -5.40529 -5.40631 -5.85629 -2.41877 -10.59974 15.34571 2.4516 4.29393 -31.99446 -0.1034 3.61407 9.34278
-0.02562 0.57767 -0.01831 173.517 0 1.4103 -3.55187 5.6586 -3.41468 3.52303 -0.45788 1.7681 -6.69645 -16.2452 5.73771 9.58183 81.30579 -0.97025 -3.98765 -11.39594 15.83665 -20.17505 8.69655 -75.7954 3.81292 11.01231 -9.6137 6.87654 -7.18916 -5.28105 -5.64931 -2.44126 -9.10312 16.2308 1.59071 4.15749 -30.74374 -0.42207 3.52132 9.15773
-0.02929 0.57746 -0.01859 173.52219 0 1.61791 -4.0839 5.74596 -3.0465 4.80442 -0.65884 1.81946 -7.94596 -16.04988 5.23043 9.56073 81.32683 -0.9698 -3.99096 -12.90587 16.05263 -20.68976 8.76119 -75.84089 3.82376 11.07845 -9.95639 6.61713 -8.52151 -5.2516 -5.42612 -2.47121 -7.94364 16.87614 0.84028 4.31904 -28.93729 -0.86795 3.39029 8.85562
-0.03432 0.57677 -0.01919 173.26217 0 1.63958 -4.61744 5.79164 -2.54551 6.25394 -0.57687 1.74819 -9.30195 -16.1015 5.76948 9.67021 81.3462 -0.97051 -4.05656 -14.64586 16.01592 -20.356 8.68901 -75.92996 3.85105 11.00196 -10.30384 6.5323 -8.5362 -5.454 -5.16098 -2.52377 -7.7954 16.92999 0.37404 5.21877 -25.77348 -1.66602 3.15676 8.19797
-0.03992 0.57589 -0.01991 172.89727 0 1.58552 -5.14144 5.81887 -2.00252 7.71407 -0.38174 1.63241 -10.64562 -16.25249 6.70121 9.8326 81.36966 -0.97434 -4.14594 -16.41866 15.87959 -19.70589 8.56509 -76.0339 3.88666 10.87091 -10.65078 6.51511 -8.08065 -5.75814 -4.87967 -2.58396 -7.99839 16.74708 0.02207 6.40268 -22.09131 -2.58039 2.88788 7.4197
-0.04532 0.57509 -0.0206 172.57182 0 1.55755 -5.65848 5.85305 -1.48484 9.11229 -0.23017 1.53397 -11.93522 -16.3668 7.45808 9.97292 81.39237 -0.97863 -4.22403 -18.11835 15.78084 -19.19581 8.46122 -76.12943 3.92064 10.76119 -10.99432 6.47215 -7.83281 -6.03327 -4.60417 -2.64041 -8.03942 16.66074 -0.37182 7.44992 -18.66629 -3.41773 2.63998 6.69088
-0.05046 0.57434 -0.02122 172.28267 0 1.56289 -6.22647 5.89511 -0.93926 10.76901 -0.11063 1.44451 -13.4931 -16.44407 8.19835 10.10402 81.41228 -0.97402 -4.30423 -20.08211 15.71549 -18.70541 8.37242 -76.23034 3.94626 10.66798 -11.35515 6.40976 -7.62484 -6.23318 -4.33401 -2.69768 -8.07865 16.61251 -0.80801 8.5434 -15.1074 -4.36035 2.36929 5.98213
-0.05628 0.57343 -0.022 171.8908 0 1.4825 -6.68244 5.91361 -0.44397 11.87033 0.10255 1.33034 -14.47173 -16.62418 9.07083 10.26927 81.43855 -0.99015 -4.38619 -21.4835 15.55566 -18.09368 8.24 -76.32534 3.99072 10.52573 -11.67816 6.40208 -7.21429 -6.61757 -4.05024 -2.75526 -8.20991 16.4326 -1.1283 9.60183 -11.73122 -5.11154 2.13889 5.21102
-0.06371 0.57212 -0.02315 171.26121 0 1.17285 -6.861 5.89659 -0.07939 11.59213 0.53936 1.11736 -13.99165 -17.04309 10.16432 10.49171 81.48026 -1.04987 -4.46045 -21.48375 15.17116 -17.2676 7.99722 -76.38643 4.08866 10.27366 -11.90681 6.54384 -6.38856 -7.45547 -3.72361 -2.81044 -8.50357 15.93716 -1.16529 10.50089 -8.85451 -5.28818 2.02292 4.20877
-0.07181 0.57066 -0.02445 170.52871 0 0.78204 -6.9218 5.85172 0.22949 10.7248 1.06675 0.88835 -12.90266 -17.56519 11.38508 10.75154 81.52968 -1.13315 -4.53678 -20.88585 14.69341 -16.32065 7.71289 -76.44384 4.20457 9.97182 -12.09431 6.73531 -5.36916 -8.48253 -3.38702 -2.86561 -8.87956 15.31948 -1.08868 11.35063 -6.20717 -5.27133 1.94976 3.16311
-0.07967 0.56928 -0.02569 169.82929 0 0.43533 -7.01675 5.80352 0.55203 10.02414 1.55827 0.6943 -12.0018 -18.0545 12.57962 11.00925 81.57405 -1.21347 -4.61655 -20.45756 14.24979 -15.40284 7.44891 -76.51192 4.30991 9.68451 -12.29538 6.89448 -4.41617 -9.44158 -3.0592 -2.92217 -9.22435 14.76633 -1.05763 12.21769 -3.54747 -5.35307 1.86105 2.19518
-0.08726 0.56784 -0.02691 169.18152 0 0.05415 -7.19218 5.82295 0.92607 9.7511 2.03493 0.38345 -11.47529 -18.49054 13.65764 11.20388 81.61881 -1.25938 -4.67882 -20.46522 13.83499 -14.58972 7.17614 -76.54191 4.42568 9.42907 -12.52265 7.09786 -3.53361 -10.323 -2.70696 -2.97459 -9.55845 14.17019 -1.0456 13.12049 -0.48696 -5.39146 1.75537 0.9804
-0.09557 0.56649 -0.02821 168.4062 0 -0.27183 -7.17336 5.69413 1.17803 8.44671 2.55813 0.31066 -10.02374 -19.05721 14.9994 11.54077 81.67247 -1.3848 -4.7775 -19.41837 13.34251 -13.52538 6.9135 -76.65094 4.5239 9.09663 -12.67991 7.21901 -2.47019 -11.41647 -2.41085 -3.03372 -9.92544 13.6335 -0.97174 13.92828 1.68459 -5.47579 1.69469 0.26836
-0.1057 0.56535 -0.0297 167.27687 0 -0.44036 -6.63644 5.17229 1.12302 4.44287 3.23251 0.91422 -6.17387 -19.99191 17.06937 12.24236 81.67558 -1.70166 -4.97645 -15.63734 12.63024 -11.87866 6.68063 -76.97119 4.56862 8.56158 -12.70054 7.11001 -0.90896 -12.99192 -2.20909 -3.12708 -10.39978 13.32868 -0.72644 14.52949 1.38979 -5.70478 1.75719 0.97807
-0.11652 0.56433 -0.03126 166.02783 0 -0.54797 -5.91025 4.50115 0.94928 -0.57907 3.94664 1.75362 -1.4135 -21.04966 19.39119 13.09196 81.69741 -2.09984 -5.21077 -10.80892 11.84806 -9.97461 6.46128 -77.37159 4.5949 7.95264 -12.64222 6.91472 0.81544 -14.78504 -2.07621 -3.22434 -10.89593 13.08242 -0.42814 15.02867 0.21746 -5.99024 1.86233 2.19105
-0.12702 0.56333 -0.03278 164.85239 0 -0.67261 -5.2775 3.89145 0.81187 -5.13831 4.60629 2.47759 2.93542 -22.02705 21.57711 13.88234 81.76327 -2.47809 -5.42992 -6.44026 11.11765 -8.13003 6.24136 -77.74159 4.63031 7.3777 -12.59102 6.75238 2.43436 -16.51472 -1.95301 -3.30936 -11.35615 12.78535 -0.17412 15.54251 -0.51048 -6.27035 1.94146 3.15986
-0.13759 0.56202 -0.03435 163.59412 0 -0.8427 -4.60873 3.30532 0.72436 -9.71977 5.40248 3.24289 7.29853 -23.10424 23.86402 14.62834 81.62246 -2.79379 -5.64957 -2.12241 10.30227 -6.50318 5.99606 -78.0898 4.66418 6.79428 -12.66475 6.61743 4.19779 -18.0987 -1.65567 -3.43819 -11.92877 12.58461 0.16674 16.18249 -1.43552 -6.46364 2.04841 4.19443
